<svg width="20" height="20" viewBox="0 0 20 20" fill="none" xmlns="http://www.w3.org/2000/svg">
<path fill-rule="evenodd" clip-rule="evenodd" d="M0 3.92858C0 3.36026 0.225765 2.81521 0.627628 2.41335C1.02949 2.01149 1.57454 1.78572 2.14286 1.78572H17.8571C18.4255 1.78572 18.9705 2.01149 19.3724 2.41335C19.7742 2.81521 20 3.36026 20 3.92858V4.41715L10.5471 10.72C10.3821 10.8193 10.1926 10.8703 10 10.8671C9.80744 10.8703 9.61787 10.8193 9.45286 10.72L0 4.41715V3.92858ZM0 6.56286V16.0714C0 16.6398 0.225765 17.1848 0.627628 17.5867C1.02949 17.9885 1.57454 18.2143 2.14286 18.2143H17.8571C18.4255 18.2143 18.9705 17.9885 19.3724 17.5867C19.7742 17.1848 20 16.6398 20 16.0714V6.56286L11.5329 12.2086L11.5257 12.2143C11.0699 12.5042 10.5402 12.6564 10 12.6529C9.46429 12.6529 8.92428 12.5071 8.47429 12.2143L8.46714 12.2086L0 6.56286Z" fill="#8D8D8C"/>
</svg>
