<svg width="40" height="38" viewBox="0 0 40 38" fill="none" xmlns="http://www.w3.org/2000/svg">
<g filter="url(#filter0_i_2007_3339)">
<path d="M6.59392 34.1893L14.7474 23.8119C15.1661 23.3747 15.4218 22.8031 15.4697 22.1951C15.476 22.0034 15.4346 21.8131 15.3501 21.6416C15.2657 21.4701 15.1413 21.3228 14.9866 21.2128C14.6087 20.9484 14.1561 20.8172 13.6977 20.8396C13.495 20.846 13.2927 20.8634 13.0918 20.8919L0 22.6858V15.3138L13.0918 17.1272C13.2927 17.1561 13.495 17.1735 13.6977 17.1796C14.1579 17.2006 14.6114 17.0649 14.9866 16.7936C15.1405 16.6814 15.2643 16.5327 15.3486 16.3604C15.4328 16.188 15.4747 15.9973 15.4697 15.8049C15.4293 15.206 15.1835 14.6404 14.7742 14.2073L6.56874 3.6796L13.1815 0L18.1057 12.3088C18.2534 12.7683 18.514 13.1824 18.8611 13.5132C18.9853 13.6471 19.1339 13.7539 19.3002 13.8269C19.4665 13.8998 19.6463 13.9376 19.8274 13.9376C20.0085 13.9376 20.1883 13.8998 20.3546 13.8269C20.5209 13.7539 20.6695 13.6471 20.7937 13.5132C21.1355 13.1792 21.3935 12.766 21.5428 12.3088L26.4276 0L33.1584 3.6796L24.8743 14.2073C24.4547 14.6544 24.1993 15.2346 24.152 15.8505C24.1486 16.0366 24.1897 16.2211 24.2716 16.3876C24.3535 16.554 24.4739 16.6979 24.6225 16.8067C25.0134 17.0746 25.4799 17.2053 25.9508 17.1796C26.1668 17.1846 26.3835 17.167 26.596 17.1272L39.617 15.3138V22.6858L26.596 20.8919C26.3642 20.8499 26.1279 20.8324 25.8925 20.8396C25.4382 20.8123 24.9873 20.9314 24.6037 21.1801C24.4574 21.2862 24.3383 21.427 24.2574 21.5901C24.1766 21.7532 24.1362 21.9338 24.1394 22.1163C24.1953 22.7467 24.4511 23.3415 24.868 23.8119L33.1191 34.1893L26.415 38L21.5034 25.704C21.3503 25.2486 21.0945 24.8363 20.7559 24.4996C20.6317 24.3656 20.4815 24.2589 20.3153 24.1859C20.149 24.113 19.9692 24.0752 19.7881 24.0752C19.6069 24.0752 19.4287 24.113 19.2624 24.1859C19.0961 24.2589 18.9459 24.3656 18.8218 24.4996C18.4808 24.8393 18.2161 25.2502 18.0475 25.704L13.1233 38L6.59392 34.1893Z" fill="#FF5200"/>
</g>
<defs>
<filter id="filter0_i_2007_3339" x="-1" y="0" width="40.6172" height="41" filterUnits="userSpaceOnUse" color-interpolation-filters="sRGB">
<feFlood flood-opacity="0" result="BackgroundImageFix"/>
<feBlend mode="normal" in="SourceGraphic" in2="BackgroundImageFix" result="shape"/>
<feColorMatrix in="SourceAlpha" type="matrix" values="0 0 0 0 0 0 0 0 0 0 0 0 0 0 0 0 0 0 127 0" result="hardAlpha"/>
<feOffset dx="-1" dy="3"/>
<feGaussianBlur stdDeviation="1.5"/>
<feComposite in2="hardAlpha" operator="arithmetic" k2="-1" k3="1"/>
<feColorMatrix type="matrix" values="0 0 0 0 0.988963 0 0 0 0 0.432533 0 0 0 0 0.194603 0 0 0 1 0"/>
<feBlend mode="normal" in2="shape" result="effect1_innerShadow_2007_3339"/>
</filter>
</defs>
</svg>
