<svg width="29" height="29" viewBox="0 0 29 29" fill="none" xmlns="http://www.w3.org/2000/svg">
<path d="M11.8894 6.2912C12.6689 5.51494 12.6752 4.25478 11.9034 3.47082L11.108 2.66292C10.3288 1.87148 9.05396 1.86649 8.26859 2.65181L0.585824 10.3342C0.210729 10.7093 0 11.218 0 11.7484V18.0689C0 18.0756 0.00268283 18.0821 0.00745511 18.0868C0.0173333 18.0967 0.0333026 18.0967 0.0431799 18.0868L11.8894 6.2912ZM7.5014 15.914C6.72034 15.133 6.72034 13.8667 7.50139 13.0856L8.27705 12.3099C9.0581 11.5289 10.3244 11.5289 11.1055 12.3099L16.6865 17.8909C17.4675 18.672 17.4675 19.9383 16.6865 20.7194L15.9109 21.495C15.1298 22.276 13.8635 22.2761 13.0824 21.495L7.5014 15.914ZM18.0867 28.9926C18.0966 28.9827 18.0966 28.9667 18.0868 28.9568L6.2912 17.1106C5.51494 16.3311 4.25478 16.3248 3.47082 17.0966L2.66293 17.892C1.87148 18.6712 1.8665 19.946 2.65183 20.7314L10.3343 28.4142C10.7094 28.7893 11.2181 29 11.7485 29H18.0688C18.0755 29 18.082 28.9973 18.0867 28.9926ZM10.9131 0.00739368C10.9032 0.0172368 10.9032 0.0331903 10.9131 0.0430544L22.7091 11.8896C23.4853 12.6692 24.7454 12.6755 25.5294 11.9037L26.3373 11.1083C27.1287 10.3292 27.1337 9.05434 26.3484 8.26896L18.6659 0.585845C18.2909 0.210737 17.7821 0 17.2517 0H10.9309C10.9242 0 10.9178 0.00265959 10.9131 0.00739368ZM12.3074 11.1091C11.5264 10.3281 11.5263 9.06172 12.3074 8.28067L13.0831 7.505C13.8641 6.72395 15.1304 6.72395 15.9115 7.505L21.4926 13.0861C22.2737 13.8671 22.2737 15.1335 21.4926 15.9145L20.7169 16.6902C19.9359 17.4712 18.6696 17.4712 17.8885 16.6902L12.3074 11.1091ZM17.8919 26.3369C18.6711 27.1284 19.9459 27.1334 20.7313 26.348L28.4142 18.6651C28.7893 18.29 29 17.7813 29 17.2509V15.6844C29 13.9047 26.85 13.0114 25.5888 14.2672L17.1107 22.7088C16.3311 23.4851 16.3248 24.7452 17.0967 25.5292L17.8919 26.3369ZM27 29C28.1046 29 29 28.1046 29 27V25.3105C29 23.5287 26.8457 22.6364 25.5858 23.8963L23.8963 25.5858C22.6364 26.8457 23.5287 29 25.3105 29H27ZM3.41425 23.8967C2.15434 22.6367 0 23.529 0 25.3108V27C0 28.1046 0.895431 29 2 29H3.68905C5.47083 29 6.36318 26.8458 5.10331 25.5858L3.41425 23.8967ZM28.9574 8.4752C28.9671 8.48496 28.9829 8.48496 28.9927 8.4752C28.9974 8.47052 29 8.46416 29 8.45754V2C29 0.895432 28.1046 0 27 0H25.311C23.5292 0 22.6369 2.1542 23.8967 3.41416L28.9574 8.4752ZM2 0C0.895431 0 0 0.895431 0 2V3.68901C0 5.47079 2.15424 6.36314 3.41418 5.10326L5.10327 3.41425C6.36324 2.15433 5.47092 0 3.68909 0H2Z" fill="#FF5200"/>
</svg>
