<svg width="95" height="21" viewBox="0 0 95 21" fill="none" xmlns="http://www.w3.org/2000/svg">
<path d="M88.4966 20.5115C84.5136 20.5115 81.7227 17.6123 81.7227 13.4667C81.7227 9.26689 84.4594 6.36767 88.3882 6.36767C92.3984 6.36767 94.9453 9.05012 94.9453 13.2228V14.2254L84.8658 14.2525C85.1097 16.6098 86.3561 17.802 88.5508 17.802C90.3662 17.802 91.5584 17.0975 91.9377 15.824H94.9995C94.4305 18.7503 91.9919 20.5115 88.4966 20.5115ZM88.4153 9.07722C86.4644 9.07722 85.2722 10.1339 84.9471 12.139H91.6668C91.6668 10.2965 90.3933 9.07722 88.4153 9.07722Z" fill="#F0F0F0"/>
<path d="M80.3952 20.1591H77.1166V0H80.3952V20.1591Z" fill="#F0F0F0"/>
<path d="M62.7349 13.4396C62.7349 9.29398 65.4715 6.36767 69.4275 6.36767C73.0854 6.36767 75.5782 8.39983 75.9304 11.6242H72.6247C72.2454 10.1068 71.1345 9.32108 69.5629 9.32108C67.4495 9.32108 66.0405 10.9197 66.0405 13.4396C66.0405 15.9595 67.3411 17.531 69.4546 17.531C71.1074 17.531 72.2725 16.7182 72.6247 15.255H75.9575C75.5511 18.371 72.9499 20.5115 69.4546 20.5115C65.3902 20.5115 62.7349 17.6936 62.7349 13.4396Z" fill="#F0F0F0"/>
<path d="M54.0132 20.5115C51.1682 20.5115 49.4341 18.8587 49.4341 16.3388C49.4341 13.8731 51.2224 12.3287 54.3926 12.0848L58.4027 11.7868V11.4887C58.4027 9.67332 57.3189 8.94174 55.6389 8.94174C53.6881 8.94174 52.6042 9.75461 52.6042 11.1636H49.7863C49.7863 8.26435 52.1707 6.36767 55.8015 6.36767C59.4052 6.36767 61.6271 8.31855 61.6271 12.0306V20.1593H58.7278L58.484 18.1813C57.915 19.5632 56.0996 20.5115 54.0132 20.5115ZM55.097 18.0187C57.1292 18.0187 58.4298 16.7994 58.4298 14.7402V14.0357L55.6389 14.2525C53.5797 14.4421 52.7939 15.1195 52.7939 16.2033C52.7939 17.4226 53.6068 18.0187 55.097 18.0187Z" fill="#F0F0F0"/>
<path d="M38.7353 20.1593H35.4296V6.7741H38.4914L38.7624 8.50821C39.6023 7.15344 41.2281 6.36767 43.0435 6.36767C46.4033 6.36767 48.1374 8.45402 48.1374 11.9223V20.1593H44.8318V12.708C44.8318 10.4591 43.7208 9.37527 42.0138 9.37527C39.9817 9.37527 38.7353 10.7842 38.7353 12.9519V20.1593Z" fill="#F0F0F0"/>
<path d="M24.135 20.1593H20.8293V6.7741H23.8911L24.1621 8.50821C25.002 7.15344 26.6277 6.36767 28.4431 6.36767C31.803 6.36767 33.5371 8.45402 33.5371 11.9223V20.1593H30.2315V12.708C30.2315 10.4591 29.1205 9.37527 27.4135 9.37527C25.3814 9.37527 24.135 10.7842 24.135 12.9519V20.1593Z" fill="#F0F0F0"/>
<path d="M17.1156 4.09133C15.9776 4.09133 15.0835 3.19718 15.0835 2.08626C15.0835 0.975349 15.9776 0.108292 17.1156 0.108292C18.1994 0.108292 19.0936 0.975349 19.0936 2.08626C19.0936 3.19718 18.1994 4.09133 17.1156 4.09133ZM15.4628 20.159V6.77379H18.7685V20.159H15.4628Z" fill="#F0F0F0"/>
<path d="M7.83061 13.3311H3.46823V20.1592H0V0.352316H7.83061C11.8137 0.352316 14.3877 2.95349 14.3877 6.82815C14.3877 10.6486 11.7866 13.3311 7.83061 13.3311ZM7.15322 3.44121H3.46823V10.2422H7.09903C9.48344 10.2422 10.7569 8.9687 10.7569 6.80105C10.7569 4.63341 9.45634 3.44121 7.15322 3.44121Z" fill="#F0F0F0"/>
</svg>
