<svg width="90" height="50" viewBox="0 0 90 50" fill="none" xmlns="http://www.w3.org/2000/svg">
<g filter="url(#filter0_i_0_10)">
<path fill-rule="evenodd" clip-rule="evenodd" d="M65 10C62.3695 10 59.9251 10.6686 57.797 11.8373C50.1292 16.0482 39.8708 16.0482 32.203 11.8373C30.0749 10.6686 27.6305 10 25 10C16.7157 10 10 16.7157 10 25C10 33.2843 16.7157 40 25 40C27.6305 40 30.0749 39.3314 32.203 38.1627C39.8708 33.9518 50.1292 33.9518 57.797 38.1627C59.9251 39.3314 62.3695 40 65 40C73.2843 40 80 33.2843 80 25C80 16.7157 73.2843 10 65 10ZM52.9834 3.07205C48.3135 5.6366 41.6865 5.6366 37.0166 3.07205C33.4507 1.11378 29.3554 2.65086e-06 25 2.84124e-06C11.1929 3.44477e-06 4.89257e-07 11.1929 1.09278e-06 25C1.69631e-06 38.8071 11.1929 50 25 50C29.3554 50 33.4507 48.8862 37.0166 46.9279C41.6865 44.3634 48.3135 44.3634 52.9834 46.9279C56.5493 48.8862 60.6446 50 65 50C78.8071 50 90 38.8071 90 25C90 11.1929 78.8071 4.89256e-07 65 1.09278e-06C60.6446 1.28317e-06 56.5493 1.11378 52.9834 3.07205Z" fill="#020100"/>
</g>
<defs>
<filter id="filter0_i_0_10" x="2.18557e-06" y="3.93402e-06" width="90" height="54" filterUnits="userSpaceOnUse" color-interpolation-filters="sRGB">
<feFlood flood-opacity="0" result="BackgroundImageFix"/>
<feBlend mode="normal" in="SourceGraphic" in2="BackgroundImageFix" result="shape"/>
<feColorMatrix in="SourceAlpha" type="matrix" values="0 0 0 0 0 0 0 0 0 0 0 0 0 0 0 0 0 0 127 0" result="hardAlpha"/>
<feOffset dy="4"/>
<feGaussianBlur stdDeviation="2"/>
<feComposite in2="hardAlpha" operator="arithmetic" k2="-1" k3="1"/>
<feColorMatrix type="matrix" values="0 0 0 0 0.616207 0 0 0 0 0.616207 0 0 0 0 0.616207 0 0 0 0.25 0"/>
<feBlend mode="normal" in2="shape" result="effect1_innerShadow_0_10"/>
</filter>
</defs>
</svg>
