<svg width="20" height="20" viewBox="0 0 20 20" fill="none" xmlns="http://www.w3.org/2000/svg">
<g clip-path="url(#clip0_0_14)">
<path fill-rule="evenodd" clip-rule="evenodd" d="M16.8876 0.139614C17.2995 -0.0107441 17.7455 -0.0410235 18.174 0.0524488C18.6067 0.146857 19.0033 0.36354 19.3165 0.676737C19.6296 0.989934 19.8463 1.38648 19.9407 1.81922C20.0342 2.24768 20.0039 2.6938 19.8536 3.10555L14.7479 18.4084L14.7476 18.4094C14.6232 18.7857 14.4042 19.1239 14.1115 19.3913C13.8196 19.658 13.4643 19.8453 13.0795 19.9356C12.6946 20.0294 12.2919 20.0214 11.9109 19.9126C11.5303 19.8039 11.1845 19.5981 10.9074 19.3156L8.16839 16.589L5.29116 18.0769C5.0668 18.1929 4.79784 18.1817 4.5838 18.0476C4.36977 17.9136 4.24247 17.6763 4.24903 17.4239L4.36699 12.8756L14.4312 5.56504C14.8302 5.27524 14.9187 4.71688 14.6289 4.31792C14.339 3.91895 13.7807 3.83047 13.3818 4.12027L3.14679 11.5549L0.675779 9.08384C0.408175 8.81642 0.210909 8.48648 0.1022 8.12411C-0.00573646 7.76432 -0.0232727 7.38352 0.0510836 7.01541C0.125536 6.61325 0.30531 6.23797 0.57214 5.92787C0.840797 5.61564 1.18796 5.38082 1.57774 5.2477L1.58256 5.24605L16.8876 0.139614Z" fill="#F0F0F0"/>
</g>
<defs>
<clipPath id="clip0_0_14">
<rect width="20" height="20" fill="white"/>
</clipPath>
</defs>
</svg>
