<svg width="14" height="14" viewBox="0 0 14 14" fill="none" xmlns="http://www.w3.org/2000/svg">
<g clip-path="url(#clip0_0_98)">
<path d="M7.00033 11.0833C7.1157 11.0833 7.22848 11.0491 7.32441 10.985C7.42034 10.9209 7.4951 10.8298 7.53926 10.7232C7.58341 10.6167 7.59496 10.4994 7.57245 10.3862C7.54994 10.2731 7.49439 10.1691 7.4128 10.0875C7.33122 10.0059 7.22728 9.95039 7.11413 9.92789C7.00097 9.90538 6.88368 9.91693 6.77709 9.96108C6.6705 10.0052 6.5794 10.08 6.5153 10.1759C6.4512 10.2719 6.41699 10.3846 6.41699 10.5C6.41699 10.6547 6.47845 10.8031 6.58785 10.9125C6.69724 11.0219 6.84562 11.0833 7.00033 11.0833ZM9.91699 11.0833C10.0324 11.0833 10.1451 11.0491 10.2411 10.985C10.337 10.9209 10.4118 10.8298 10.4559 10.7232C10.5001 10.6167 10.5116 10.4994 10.4891 10.3862C10.4666 10.2731 10.4111 10.1691 10.3295 10.0875C10.2479 10.0059 10.144 9.95039 10.0308 9.92789C9.91764 9.90538 9.80035 9.91693 9.69376 9.96108C9.58717 10.0052 9.49607 10.08 9.43197 10.1759C9.36787 10.2719 9.33366 10.3846 9.33366 10.5C9.33366 10.6547 9.39512 10.8031 9.50451 10.9125C9.61391 11.0219 9.76228 11.0833 9.91699 11.0833ZM9.91699 8.75001C10.0324 8.75001 10.1451 8.7158 10.2411 8.6517C10.337 8.5876 10.4118 8.4965 10.4559 8.38991C10.5001 8.28332 10.5116 8.16603 10.4891 8.05287C10.4666 7.93972 10.4111 7.83578 10.3295 7.7542C10.2479 7.67262 10.144 7.61706 10.0308 7.59455C9.91764 7.57204 9.80035 7.5836 9.69376 7.62775C9.58717 7.6719 9.49607 7.74667 9.43197 7.84259C9.36787 7.93852 9.33366 8.0513 9.33366 8.16668C9.33366 8.32139 9.39512 8.46976 9.50451 8.57916C9.61391 8.68855 9.76228 8.75001 9.91699 8.75001ZM7.00033 8.75001C7.1157 8.75001 7.22848 8.7158 7.32441 8.6517C7.42034 8.5876 7.4951 8.4965 7.53926 8.38991C7.58341 8.28332 7.59496 8.16603 7.57245 8.05287C7.54994 7.93972 7.49439 7.83578 7.4128 7.7542C7.33122 7.67262 7.22728 7.61706 7.11413 7.59455C7.00097 7.57204 6.88368 7.5836 6.77709 7.62775C6.6705 7.6719 6.5794 7.74667 6.5153 7.84259C6.4512 7.93852 6.41699 8.0513 6.41699 8.16668C6.41699 8.32139 6.47845 8.46976 6.58785 8.57916C6.69724 8.68855 6.84562 8.75001 7.00033 8.75001ZM11.0837 1.75001H10.5003V1.16668C10.5003 1.01197 10.4389 0.863594 10.3295 0.754198C10.2201 0.644802 10.0717 0.583344 9.91699 0.583344C9.76228 0.583344 9.61391 0.644802 9.50451 0.754198C9.39512 0.863594 9.33366 1.01197 9.33366 1.16668V1.75001H4.66699V1.16668C4.66699 1.01197 4.60553 0.863594 4.49614 0.754198C4.38674 0.644802 4.23837 0.583344 4.08366 0.583344C3.92895 0.583344 3.78058 0.644802 3.67118 0.754198C3.56178 0.863594 3.50033 1.01197 3.50033 1.16668V1.75001H2.91699C2.45286 1.75001 2.00774 1.93438 1.67956 2.26257C1.35137 2.59076 1.16699 3.03588 1.16699 3.50001V11.6667C1.16699 12.1308 1.35137 12.5759 1.67956 12.9041C2.00774 13.2323 2.45286 13.4167 2.91699 13.4167H11.0837C11.5478 13.4167 11.9929 13.2323 12.3211 12.9041C12.6493 12.5759 12.8337 12.1308 12.8337 11.6667V3.50001C12.8337 3.03588 12.6493 2.59076 12.3211 2.26257C11.9929 1.93438 11.5478 1.75001 11.0837 1.75001ZM11.667 11.6667C11.667 11.8214 11.6055 11.9698 11.4961 12.0792C11.3867 12.1886 11.2384 12.25 11.0837 12.25H2.91699C2.76228 12.25 2.61391 12.1886 2.50451 12.0792C2.39512 11.9698 2.33366 11.8214 2.33366 11.6667V6.41668H11.667V11.6667ZM11.667 5.25001H2.33366V3.50001C2.33366 3.3453 2.39512 3.19693 2.50451 3.08753C2.61391 2.97814 2.76228 2.91668 2.91699 2.91668H3.50033V3.50001C3.50033 3.65472 3.56178 3.80309 3.67118 3.91249C3.78058 4.02189 3.92895 4.08334 4.08366 4.08334C4.23837 4.08334 4.38674 4.02189 4.49614 3.91249C4.60553 3.80309 4.66699 3.65472 4.66699 3.50001V2.91668H9.33366V3.50001C9.33366 3.65472 9.39512 3.80309 9.50451 3.91249C9.61391 4.02189 9.76228 4.08334 9.91699 4.08334C10.0717 4.08334 10.2201 4.02189 10.3295 3.91249C10.4389 3.80309 10.5003 3.65472 10.5003 3.50001V2.91668H11.0837C11.2384 2.91668 11.3867 2.97814 11.4961 3.08753C11.6055 3.19693 11.667 3.3453 11.667 3.50001V5.25001ZM4.08366 8.75001C4.19903 8.75001 4.31181 8.7158 4.40774 8.6517C4.50367 8.5876 4.57844 8.4965 4.62259 8.38991C4.66674 8.28332 4.67829 8.16603 4.65578 8.05287C4.63328 7.93972 4.57772 7.83578 4.49614 7.7542C4.41456 7.67262 4.31062 7.61706 4.19746 7.59455C4.08431 7.57204 3.96702 7.5836 3.86043 7.62775C3.75384 7.6719 3.66273 7.74667 3.59864 7.84259C3.53454 7.93852 3.50033 8.0513 3.50033 8.16668C3.50033 8.32139 3.56178 8.46976 3.67118 8.57916C3.78058 8.68855 3.92895 8.75001 4.08366 8.75001ZM4.08366 11.0833C4.19903 11.0833 4.31181 11.0491 4.40774 10.985C4.50367 10.9209 4.57844 10.8298 4.62259 10.7232C4.66674 10.6167 4.67829 10.4994 4.65578 10.3862C4.63328 10.2731 4.57772 10.1691 4.49614 10.0875C4.41456 10.0059 4.31062 9.95039 4.19746 9.92789C4.08431 9.90538 3.96702 9.91693 3.86043 9.96108C3.75384 10.0052 3.66273 10.08 3.59864 10.1759C3.53454 10.2719 3.50033 10.3846 3.50033 10.5C3.50033 10.6547 3.56178 10.8031 3.67118 10.9125C3.78058 11.0219 3.92895 11.0833 4.08366 11.0833Z" fill="#8D8D8C"/>
</g>
<defs>
<clipPath id="clip0_0_98">
<rect width="14" height="14" fill="white"/>
</clipPath>
</defs>
</svg>
