<svg width="12" height="14" viewBox="0 0 12 14" fill="none" xmlns="http://www.w3.org/2000/svg">
<path d="M10.1088 1.7344C8.99831 0.623882 7.49212 -1.17012e-08 5.92161 0C4.3511 1.17012e-08 2.84492 0.623882 1.7344 1.7344C0.623882 2.84492 1.17012e-08 4.3511 0 5.92161C-1.17012e-08 7.49212 0.623882 8.99831 1.7344 10.1088L5.41217 13.7936C5.47704 13.859 5.55423 13.9109 5.63927 13.9463C5.72431 13.9818 5.81553 14 5.90765 14C5.99978 14 6.091 13.9818 6.17604 13.9463C6.26108 13.9109 6.33827 13.859 6.40314 13.7936L10.1088 10.0739C11.2147 8.96803 11.836 7.46813 11.836 5.90417C11.836 4.3402 11.2147 2.8403 10.1088 1.7344ZM9.11087 9.07598L5.92161 12.2792L2.73235 9.07598C2.10228 8.44533 1.67332 7.64203 1.4997 6.76763C1.32609 5.89323 1.41561 4.98699 1.75694 4.16346C2.09828 3.33993 2.67612 2.63608 3.4174 2.14089C4.15869 1.6457 5.03014 1.38141 5.92161 1.38141C6.81308 1.38141 7.68454 1.6457 8.42582 2.14089C9.16711 2.63608 9.74494 3.33993 10.0863 4.16346C10.4276 4.98699 10.5171 5.89323 10.3435 6.76763C10.1699 7.64203 9.74095 8.44533 9.11087 9.07598ZM3.82801 3.77916C3.26463 4.34427 2.94827 5.10969 2.94827 5.90766C2.94827 6.70562 3.26463 7.47104 3.82801 8.03616C4.24656 8.45543 4.77961 8.74176 5.36028 8.85922C5.94095 8.97669 6.54338 8.92006 7.09199 8.69645C7.6406 8.47283 8.11095 8.09218 8.44405 7.60225C8.77714 7.11233 8.95813 6.53495 8.96432 5.94255C8.96747 5.547 8.89127 5.15484 8.74024 4.78924C8.58921 4.42365 8.3664 4.09205 8.08501 3.81405C7.80842 3.53112 7.47861 3.30568 7.11457 3.1507C6.75052 2.99572 6.35941 2.91427 5.96376 2.91103C5.56811 2.90778 5.17573 2.98282 4.80919 3.1318C4.44265 3.28079 4.10919 3.5008 3.82801 3.77916ZM7.10101 7.04518C6.83655 7.31368 6.48703 7.48198 6.11222 7.5213C5.73741 7.56063 5.36057 7.46854 5.04614 7.26077C4.73171 7.05301 4.49921 6.74248 4.3884 6.38226C4.27759 6.02205 4.29533 5.63454 4.43861 5.28596C4.58189 4.93739 4.8418 4.64941 5.17391 4.47126C5.50601 4.29311 5.88969 4.23585 6.25934 4.30927C6.62899 4.38269 6.96165 4.58223 7.20046 4.87378C7.43927 5.16533 7.5694 5.53079 7.56858 5.90766C7.55843 6.33843 7.37771 6.74756 7.06612 7.04518H7.10101Z" fill="#8D8D8C"/>
</svg>
